<?xml version="1.0" encoding="iso-8859-1"?>
<!-- Generator: Adobe Illustrator 16.0.0, SVG Export Plug-In . SVG Version: 6.00 Build 0)  -->
<!DOCTYPE svg PUBLIC "-//W3C//DTD SVG 1.1//EN" "http://www.w3.org/Graphics/SVG/1.1/DTD/svg11.dtd">
<svg version="1.1" id="Capa_1" xmlns="http://www.w3.org/2000/svg" xmlns:xlink="http://www.w3.org/1999/xlink" x="0px" y="0px"
	  viewBox="0 0 512 512" style="enable-background:new 0 0 476.288 476.287;"
	 xml:space="preserve">
<g>
	<g id="Layer_3_42_">
		<g>
			<path d="M132.381,284.109c-24.525,0-44.479,19.953-44.479,44.479s19.954,44.481,44.479,44.481
				c24.526,0,44.48-19.955,44.48-44.481S156.907,284.109,132.381,284.109z M132.381,351.941c-12.876,0-23.352-10.476-23.352-23.353
				c0-12.876,10.476-23.353,23.352-23.353s23.352,10.477,23.352,23.353C155.732,341.466,145.257,351.941,132.381,351.941z"/>
			<path d="M379.01,283.499c-24.525,0-44.48,19.954-44.48,44.481c0,24.525,19.955,44.48,44.48,44.48
				c24.529,0,44.481-19.955,44.481-44.48C423.492,303.453,403.54,283.499,379.01,283.499z M379.01,351.333
				c-12.875,0-23.353-10.476-23.353-23.353s10.478-23.352,23.353-23.352c12.878,0,23.354,10.475,23.354,23.352
				C402.363,340.857,391.888,351.333,379.01,351.333z"/>
			<path d="M471.335,230.505v-94.844c0-9.077-1.019-20.337-8.965-26.901c-6.438-5.321-14.68-5.329-21.303-5.334
				c-150.666-0.137-248.663-0.209-283.395-0.209c-28.849,0-62.518,23.191-100.066,68.929c-15.186,18.497-27.83,36.826-36.126,49.561
				c-40.391,54.98-19.336,104.427,25.995,104.427c3.704,0,12.229,0.214,31.342,0.296c1.139-28.566,24.722-51.458,53.563-51.458
				c28.852,0,52.441,22.909,53.563,51.491c57.721,0,122.236,0,139.183,0c0.811-29.032,24.66-52.403,53.884-52.403
				c29.174,0,52.993,23.29,53.882,52.25C488.036,322.807,477.186,255.07,471.335,230.505z M139.29,237.585h-19.3
				c-2.509,0-4.541-2.032-4.541-4.541c0-2.509,2.032-4.542,4.541-4.542h19.3c2.508,0,4.54,2.033,4.54,4.542
				C143.83,235.553,141.798,237.585,139.29,237.585z M155.222,205.491l-96.693-0.017c0,0-0.196-0.449-0.564-1.149
				c27.608-37.153,66.006-78.806,97.258-80.917L155.222,205.491L155.222,205.491z M264.559,205.51l-93.805-0.016V123.32
				c20.345,0.006,51.88,0.025,93.805,0.057V205.51z M373.286,205.529l-93.194-0.016v-82.125c27.251,0.021,58.38,0.047,93.194,0.078
				V205.529z M451.235,205.542l-62.417-0.011v-82.052c16.634,0.014,34.044,0.03,52.231,0.047c2.222,0.002,7.422,0.007,8.5,0.713
				c0.018,0.018,1.686,1.89,1.686,11.422V205.542z"/>
		</g>
	</g>
</g>
<g>
</g>
<g>
</g>
<g>
</g>
<g>
</g>
<g>
</g>
<g>
</g>
<g>
</g>
<g>
</g>
<g>
</g>
<g>
</g>
<g>
</g>
<g>
</g>
<g>
</g>
<g>
</g>
<g>
</g>
</svg>
